<svg xmlns="http://www.w3.org/2000/svg" width="150" height="50" viewBox="0,0,150,50"><path fill="#333" d="M73.62 32.25L64.33 22.20L64.28 22.15Q65.04 25.76 65.04 29.49L65.13 29.59L65.20 29.66Q65.20 35.63 63.14 41.19L62.97 41.02L63.01 41.05Q62.04 41.42 59.79 42.18L59.67 42.06L59.77 42.15Q62.54 36.32 62.54 29.62L62.48 29.57L62.54 29.63Q62.52 20.97 58.03 13.54L58.02 13.53L58.08 13.60Q58.51 13.75 59.20 14.17L59.22 14.20L59.08 14.06Q71.28 25.38 79.12 34.63L79.08 34.59L79.22 34.73Q78.76 32.14 78.76 29.70L78.72 29.66L78.89 29.83Q78.87 22.58 81.38 16.37L81.42 16.41L81.40 16.39Q83.67 15.80 85.27 15.12L85.19 15.04L85.15 15.01Q81.87 21.20 81.57 28.36L81.62 28.41L81.59 28.38Q81.38 35.83 84.35 42.00L84.38 42.03L84.20 41.84Q83.81 41.95 83.40 41.76L83.39 41.76L83.23 41.60Q78.71 37.68 73.49 32.13L73.47 32.10ZM86.88 45.10L86.99 45.21L86.88 45.09Q87.38 45.28 87.79 45.47L87.77 45.46L88.58 45.77L88.77 45.96Q83.48 38.88 83.48 29.51L83.42 29.45L83.55 29.58Q83.44 22.24 86.75 15.99L86.80 16.04L86.81 16.05Q86.22 16.33 84.81 16.94L84.74 16.88L84.80 16.93Q85.13 16.05 85.96 14.48L86.06 14.58L86.05 14.57Q83.48 15.35 81.05 15.93L81.06 15.94L80.99 15.87Q78.48 22.45 78.48 29.88L78.46 29.86L78.47 29.87Q78.48 31.74 78.67 33.72L78.53 33.58L78.71 33.77Q73.94 27.97 69.18 23.36L69.21 23.39L59.16 13.72L59.07 13.63Q58.52 13.35 57.30 12.78L57.43 12.90L57.31 12.79Q62.14 20.47 62.14 29.56L62.27 29.70L62.27 29.70Q62.25 36.80 59.17 42.81L59.21 42.86L59.07 42.72Q59.41 42.64 61.05 42.03L61.07 42.04L61.00 41.98Q60.83 42.91 59.99 44.40L59.95 44.35L59.95 44.36Q61.24 43.78 64.71 42.98L64.76 43.03L64.71 42.99Q67.12 36.95 67.12 29.75L66.98 29.61L67.09 29.72Q67.14 27.68 66.91 25.54L66.75 25.38L66.90 25.53Q78.42 38.38 87.02 45.23Z"/><path fill="#333" d="M21.71 29.15L21.76 29.19L21.60 29.03Q19.88 29.03 18.65 30.46L18.56 30.37L18.53 30.35Q17.46 31.93 17.27 33.84L17.19 33.76L17.15 33.72Q17.04 35.90 18.13 36.87L18.09 36.83L18.08 36.82Q19.03 37.65 21.12 37.54L21.24 37.66L21.22 37.63Q23.24 37.41 24.34 36.72L24.51 36.89L24.46 36.84Q25.62 35.75 25.62 34.19L25.61 34.18L25.64 34.22Q25.62 33.82 25.55 33.44L25.47 33.36L25.42 33.31Q25.55 31.69 24.45 30.34L24.45 30.34L24.38 30.27Q23.44 29.08 21.76 29.20ZM21.35 40.32L21.33 40.30L21.23 40.20Q16.95 40.30 15.54 39.54L15.47 39.47L15.42 39.41Q14.38 38.64 14.19 36.92L14.32 37.06L14.16 36.90Q14.14 36.23 14.18 35.50L14.32 35.65L14.25 35.57Q14.30 34.52 14.30 34.07L14.43 34.20L14.30 34.06Q14.77 31.22 14.92 30.54L15.05 30.67L15.04 30.66Q15.48 28.70 16.32 27.29L16.23 27.21L16.21 27.19Q18.99 22.92 24.93 16.56L24.91 16.54L24.81 16.44Q27.50 16.17 29.71 15.37L29.66 15.31L29.67 15.33Q22.85 22.82 19.65 27.05L19.61 27.01L19.70 27.09Q20.74 26.65 22.03 26.65L22.01 26.63L22.00 26.62Q25.26 26.57 26.78 28.51L26.91 28.64L26.86 28.59Q28.24 30.27 28.58 33.81L28.48 33.71L28.40 33.62Q28.63 34.50 28.63 35.11L28.48 34.96L28.52 35.00Q28.58 38.18 26.37 39.25L26.45 39.32L26.29 39.16Q25.09 39.80 21.21 40.18ZM23.63 42.71L23.48 42.56L23.56 42.65Q24.83 42.58 26.81 42.66L26.84 42.69L26.74 42.58Q28.55 42.84 30.11 42.11L30.08 42.08L29.96 41.97Q31.10 41.20 31.10 39.41L31.19 39.50L31.14 39.45Q31.12 38.93 30.94 37.94L31.04 38.03L31.01 38.01Q30.81 36.99 30.81 36.53L30.81 36.53L30.73 36.45Q29.94 31.81 28.34 29.91L28.25 29.82L28.26 29.83Q28.26 29.79 28.10 29.56L28.15 29.61L27.77 29.30L27.74 29.31L27.76 29.33Q27.32 28.74 26.71 27.79L26.71 27.78L26.69 27.77Q25.92 26.96 23.94 26.50L23.77 26.33L23.79 26.35Q25.03 24.78 28.00 21.08L28.09 21.17L32.27 15.83L32.17 15.73Q30.65 16.66 28.26 17.42L28.38 17.54L28.39 17.55Q29.26 16.52 31.05 14.54L30.93 14.42L30.94 14.43Q28.65 15.60 24.77 16.17L24.65 16.05L24.80 16.21Q19.04 22.06 16.07 27.01L16.12 27.05L16.10 27.03Q14.51 29.48 13.94 35.73L13.85 35.64L13.90 35.69Q13.80 36.23 13.88 37.18L14.00 37.30L13.88 37.19Q14.03 39.01 15.13 39.93L15.04 39.83L15.08 39.87Q15.58 40.15 15.55 40.19L15.46 40.10L15.51 40.15Q15.89 41.07 16.69 41.48L16.57 41.37L16.65 41.45Q18.09 42.12 20.03 42.31L19.98 42.26L20.13 42.41Q20.03 42.31 23.54 42.62ZM23.33 31.42L23.37 31.45L23.25 31.33Q23.81 31.21 24.76 31.70L24.78 31.72L24.89 31.82Q25.27 32.82 25.27 33.46L25.18 33.38L25.26 33.45Q25.35 35.22 24.40 36.21L24.45 36.26L24.36 36.17Q23.45 37.05 21.36 37.36L21.22 37.22L21.34 37.34Q19.73 37.18 19.20 36.91L19.30 37.01L19.28 36.99Q19.18 36.63 19.18 36.32L19.18 36.33L18.99 36.13Q18.82 32.92 21.75 31.62L21.81 31.68L21.73 31.60Q22.62 31.39 23.38 31.46Z"/><path fill="#111" d="M117.77 19.45L117.71 19.39L117.76 19.44Q118.50 23.58 118.66 27.16L118.68 27.18L118.76 27.26Q119.85 27.32 120.91 27.32L120.93 27.34L123.03 27.23L123.10 27.30Q123.98 27.11 124.86 25.70L125.04 25.89L125.03 25.88Q125.77 24.72 125.89 23.54L125.83 23.48L125.83 23.48Q126.17 20.43 121.94 19.93L121.95 19.94L121.96 19.95Q120.40 20.03 117.77 19.46ZM118.62 29.86L118.75 29.99L118.69 29.94Q118.72 36.24 117.58 40.66L117.40 40.48L117.50 40.58Q116.00 40.94 113.67 42.01L113.67 42.00L113.80 42.13Q116.04 35.36 115.78 28.08L115.74 28.05L115.88 28.19Q115.46 20.69 112.68 14.26L112.79 14.36L112.77 14.34Q116.88 17.09 123.13 17.09L123.19 17.15L123.11 17.07Q129.17 17.07 129.32 20.54L129.34 20.56L129.38 20.59Q129.50 23.08 128.51 25.74L128.51 25.74L128.38 25.62Q127.93 26.69 126.98 27.91L127.08 28.01L127.01 27.94Q125.80 29.65 123.25 29.92L123.28 29.95L123.20 29.88Q120.99 29.95 118.74 29.98ZM124.77 32.13L124.86 32.21L124.81 32.16Q128.90 32.33 130.15 27.54L130.16 27.55L130.17 27.56Q131.11 23.89 130.96 21.87L131.12 22.04L131.05 21.97Q130.97 20.47 130.21 19.48L130.20 19.48L130.20 19.47Q129.83 19.11 129.34 18.88L129.41 18.95L129.29 18.83Q129.27 18.66 128.66 17.90L128.78 18.02L128.68 17.92Q127.14 16.61 123.18 16.61L123.21 16.64L123.30 16.72Q116.34 16.66 112.12 13.50L111.99 13.37L112.03 13.42Q115.22 20.53 115.49 27.99L115.49 27.99L115.51 28.01Q115.77 35.65 113.11 42.74L113.05 42.68L113.20 42.83Q114.28 42.19 115.27 41.81L115.29 41.84L114.84 42.91L114.79 42.85Q114.60 43.43 114.33 44.00L114.32 43.99L114.31 43.98Q116.76 42.97 119.66 42.43L119.69 42.47L119.76 42.53Q120.51 36.93 120.59 32.21L120.66 32.28L120.55 32.18Q121.79 32.23 122.78 32.23L122.80 32.26L122.76 32.21Q124.09 32.21 124.89 32.25ZM123.82 22.19L123.79 22.16L123.81 22.18Q124.44 22.32 125.43 22.55L125.35 22.47L125.31 22.42Q125.51 22.74 125.55 23.05L125.54 23.04L125.62 23.12Q125.56 23.29 125.49 23.56L125.50 23.56L125.55 23.62Q125.28 24.69 124.56 25.56L124.68 25.68L124.60 25.60Q123.98 26.61 122.95 26.80L123.04 26.89L123.12 26.98Q122.19 26.77 120.56 26.77L120.64 26.86L120.62 26.83Q120.70 24.67 120.47 22.31L120.38 22.22L122.10 22.26L122.10 22.26Q123.09 22.42 123.97 22.34Z"/><path fill="#222" d="M41.62 19.13L41.69 19.20L41.63 19.14Q42.71 23.57 42.86 26.77L42.89 26.80L42.88 26.79Q43.37 26.82 47.74 26.93L47.86 27.05L47.77 26.96Q50.45 27.13 50.83 23.66L50.73 23.56L50.76 23.59Q50.92 21.80 50.00 20.89L50.08 20.97L49.94 20.83Q48.73 19.99 46.75 19.84L46.72 19.81L46.68 19.77Q43.47 19.57 41.60 19.12ZM43.00 28.73L43.05 28.78L43.04 28.77Q43.26 34.82 41.47 40.76L41.45 40.73L41.55 40.84Q40.17 41.02 37.58 42.05L37.72 42.19L37.56 42.03Q40.44 35.58 40.10 28.12L40.19 28.21L40.16 28.18Q39.75 20.73 36.44 14.22L36.49 14.27L36.56 14.34Q41.43 17.15 48.40 17.15L48.42 17.18L48.33 17.09Q53.92 17.05 54.19 20.59L54.26 20.65L54.25 20.65Q54.37 21.30 54.30 21.91L54.20 21.81L54.15 22.98L54.21 23.04Q53.37 26.96 51.24 28.67L51.24 28.67L51.22 28.66Q50.33 29.25 49.30 29.25L49.41 29.35L46.67 29.21L46.79 29.33Q52.45 36.63 56.98 41.19L56.84 41.06L56.82 41.04Q54.66 40.32 51.73 39.97L51.66 39.91L51.68 39.92Q47.98 36.04 43.07 28.81ZM51.62 40.37L51.59 40.33L51.88 40.32L53.11 41.55L53.26 41.70Q53.80 42.20 54.45 42.81L54.48 42.85L54.39 42.76Q57.96 43.39 61.54 45.26L61.63 45.35L61.44 45.16Q54.61 38.52 49.21 31.59L49.12 31.51L50.99 31.63L50.89 31.52Q54.11 31.66 55.45 27.13L55.43 27.12L55.43 27.12Q56.12 24.91 56.12 22.21L56.07 22.16L56.01 22.10Q56.15 19.95 54.43 19.31L54.39 19.26L54.32 19.19Q54.31 18.91 53.73 18.23L53.75 18.24L53.58 18.07Q52.00 16.72 48.34 16.64L48.30 16.60L48.23 16.53Q40.36 16.39 35.68 13.39L35.67 13.37L35.69 13.39Q39.45 20.24 39.79 27.93L39.83 27.96L39.76 27.89Q40.10 35.85 36.98 42.70L37.06 42.79L37.07 42.79Q38.34 42.24 39.14 41.93L39.21 42.00L38.18 44.24L38.21 44.27Q40.81 43.11 43.47 42.61L43.60 42.74L43.48 42.62Q44.83 37.57 45.02 32.35L44.95 32.29L44.93 32.26Q48.42 37.20 51.58 40.32ZM50.42 22.48L50.28 22.35L50.29 22.36Q50.34 22.64 50.34 22.98L50.52 23.16L50.47 23.68L50.46 23.67Q50.39 24.71 49.71 25.66L49.66 25.61L49.79 25.74Q49.05 26.37 48.13 26.56L48.27 26.69L48.17 26.60Q48.08 26.77 46.48 26.81L46.44 26.77L46.41 26.74Q45.77 26.71 44.93 26.60L44.90 26.57L44.97 26.64Q44.87 25.12 44.52 22.07L44.60 22.15L44.59 22.14Q45.89 22.22 46.57 22.22L46.55 22.19L46.54 22.18Q48.39 22.21 50.33 22.40Z"/><path fill="#222" d="M94.87 28.55L94.91 28.59L94.85 28.53Q92.08 28.57 91.32 30.82L91.45 30.96L91.26 30.77Q91.04 31.50 90.92 32.14L90.98 32.20L91.06 32.28Q93.67 32.49 95.30 32.49L95.25 32.43L95.19 32.38Q96.94 32.49 99.53 32.37L99.59 32.43L99.47 32.32Q99.41 30.65 98.00 29.59L98.01 29.60L97.95 29.53Q96.66 28.55 94.87 28.55ZM94.92 41.09L95.02 41.19L95.07 41.24Q90.74 41.13 89.45 39.72L89.46 39.74L89.46 39.74Q88.47 38.26 88.32 34.98L88.42 35.08L88.35 35.01Q88.45 34.89 88.38 33.52L88.35 33.49L88.33 33.47Q88.07 31.04 88.07 30.32L88.13 30.37L88.17 30.42Q88.20 28.58 88.93 27.48L88.94 27.49L88.86 27.41Q90.20 25.93 93.16 25.93L93.33 26.10L94.92 26.12L94.87 26.08Q96.91 26.06 98.43 26.36L98.30 26.23L98.41 26.34Q100.46 26.79 101.45 28.01L101.54 28.10L101.40 27.96Q102.00 29.02 102.07 31.11L102.15 31.19L102.22 31.25Q102.15 32.33 102.19 34.50L102.26 34.57L102.24 34.55Q99.30 34.50 96.52 34.50L96.60 34.58L90.91 34.49L90.96 34.54Q91.04 38.88 95.11 38.65L95.13 38.67L95.07 38.61Q98.98 38.57 100.20 36.74L100.18 36.72L100.06 36.60Q101.10 37.29 102.70 38.48L102.53 38.30L102.61 38.38Q101.22 40.77 97.07 41.03L97.12 41.08L97.16 41.12Q96.36 41.08 94.99 41.16ZM97.36 43.57L97.29 43.49L97.25 43.46Q98.37 43.44 99.59 43.51L99.70 43.62L99.60 43.52Q104.53 43.65 105.44 40.87L105.59 41.03L105.43 40.86Q103.94 39.76 102.84 38.99L102.85 39.00L102.86 39.02Q102.87 38.46 103.06 38.23L103.18 38.34L103.06 38.23Q102.34 37.77 100.97 36.82L100.99 36.84L101.08 36.93Q102.15 36.97 104.21 37.28L104.11 37.18L104.21 37.28Q104.06 35.95 103.99 35.27L104.04 35.32L103.83 33.33L103.72 33.22Q103.75 31.03 103.10 29.55L103.09 29.53L103.04 29.49Q102.69 29.06 102.12 28.45L102.12 28.46L102.24 28.57Q101.93 28.11 101.70 27.54L101.73 27.57L101.85 27.69Q99.91 25.60 94.85 25.60L94.78 25.53L93.20 25.62L93.16 25.59Q89.88 25.54 88.43 27.03L88.49 27.08L88.38 26.97Q87.84 28.22 87.88 30.28L87.74 30.14L87.74 30.14Q87.81 31.13 87.93 33.37L87.97 33.42L88.08 33.52Q88.18 35.15 88.29 37.20L88.19 37.10L88.14 37.05Q88.44 39.33 89.32 40.40L89.30 40.38L89.43 40.51Q89.51 40.59 89.70 40.71L89.74 40.75L90.05 41.40L89.94 41.29Q90.82 43.23 97.40 43.61ZM95.25 38.38L95.20 38.33L95.13 38.26Q94.06 38.44 93.15 37.99L93.03 37.87L93.08 37.91Q93.08 37.57 92.89 36.88L92.89 36.89L92.80 36.80Q94.56 36.76 96.15 36.76L96.20 36.81L96.10 36.71Q97.73 36.67 99.41 36.78L99.60 36.97L99.49 36.86Q98.22 38.22 95.21 38.33ZM96.87 31.01L96.75 30.89L96.85 30.99Q97.51 31.04 98.84 31.42L98.80 31.38L98.95 31.72L99.10 32.06L99.01 31.97Q97.60 32.05 96.69 32.01L96.75 32.07L96.77 32.09Q94.50 32.06 94.46 32.06L94.35 31.95L94.37 31.98Q95.08 31.01 96.76 30.89Z"/></svg>